<svg viewBox="0 0 640 260" xmlns="http://www.w3.org/2000/svg" font-family="Segoe UI, sans-serif" role="img" aria-label="Overworld raid wave diagram">
<rect x="0" y="0" width="640" height="260" fill="#f6f7fb"/>
<text x="20" y="30" font-size="14" fill="#1a1a1a" font-weight="bold">Overworld raid — 12 waves, pure chance while in a village</text>
<rect x="20" y="200" width="36" height="20" fill="#c0533a"/>
<text x="38" y="234" font-size="10" text-anchor="middle" fill="#333">1</text>
<rect x="70" y="188" width="36" height="32" fill="#c0533a"/>
<text x="88" y="234" font-size="10" text-anchor="middle" fill="#333">2</text>
<rect x="120" y="176" width="36" height="44" fill="#c0533a"/>
<text x="138" y="234" font-size="10" text-anchor="middle" fill="#333">3</text>
<rect x="170" y="164" width="36" height="56" fill="#c0533a"/>
<text x="188" y="234" font-size="10" text-anchor="middle" fill="#333">4</text>
<rect x="220" y="152" width="36" height="68" fill="#c0533a"/>
<text x="238" y="234" font-size="10" text-anchor="middle" fill="#333">5</text>
<rect x="270" y="140" width="36" height="80" fill="#c0533a"/>
<text x="288" y="234" font-size="10" text-anchor="middle" fill="#333">6</text>
<rect x="320" y="128" width="36" height="92" fill="#c0533a"/>
<text x="338" y="234" font-size="10" text-anchor="middle" fill="#333">7</text>
<rect x="370" y="116" width="36" height="104" fill="#c0533a"/>
<text x="388" y="234" font-size="10" text-anchor="middle" fill="#333">8</text>
<rect x="420" y="104" width="36" height="116" fill="#c0533a"/>
<text x="438" y="234" font-size="10" text-anchor="middle" fill="#333">9</text>
<rect x="470" y="92" width="36" height="128" fill="#c0533a"/>
<text x="488" y="234" font-size="10" text-anchor="middle" fill="#333">10</text>
<rect x="520" y="80" width="36" height="140" fill="#c0533a"/>
<text x="538" y="234" font-size="10" text-anchor="middle" fill="#333">11</text>
<rect x="570" y="160" width="36" height="60" fill="#7d2f7d"/>
<text x="588" y="234" font-size="10" text-anchor="middle" fill="#333">12</text>
<text x="20" y="252" font-size="11" fill="#333">Wave 12 (purple) adds Heaven-mod extras. No Bad Omen needed — a 20% roll every 120s while a player stands in a village.</text>
</svg>
