<svg viewBox="0 0 288 192" xmlns="http://www.w3.org/2000/svg" font-family="Segoe UI, sans-serif" role="img" aria-label="End portal frame diagram">
<rect x="0" y="0" width="288" height="192" fill="#f6f7fb"/>
<rect x="32" y="0" width="32" height="32" fill="#2a5a3f" stroke="#33384a" stroke-width="1.5"/>
<text x="48.0" y="20.0" text-anchor="middle" font-size="11" fill="#1a1a1a">E</text>
<rect x="64" y="0" width="32" height="32" fill="#2a5a3f" stroke="#33384a" stroke-width="1.5"/>
<text x="80.0" y="20.0" text-anchor="middle" font-size="11" fill="#1a1a1a">E</text>
<rect x="96" y="0" width="32" height="32" fill="#2a5a3f" stroke="#33384a" stroke-width="1.5"/>
<text x="112.0" y="20.0" text-anchor="middle" font-size="11" fill="#1a1a1a">E</text>
<rect x="128" y="0" width="32" height="32" fill="#2a5a3f" stroke="#33384a" stroke-width="1.5"/>
<text x="144.0" y="20.0" text-anchor="middle" font-size="11" fill="#1a1a1a">E</text>
<rect x="160" y="0" width="32" height="32" fill="#2a5a3f" stroke="#33384a" stroke-width="1.5"/>
<text x="176.0" y="20.0" text-anchor="middle" font-size="11" fill="#1a1a1a">E</text>
<rect x="32" y="32" width="32" height="32" fill="#2a5a3f" stroke="#33384a" stroke-width="1.5"/>
<text x="48.0" y="52.0" text-anchor="middle" font-size="11" fill="#1a1a1a">E</text>
<rect x="64" y="32" width="32" height="32" fill="#7c3fd8" stroke="#33384a" stroke-width="1.5"/>
<rect x="96" y="32" width="32" height="32" fill="#7c3fd8" stroke="#33384a" stroke-width="1.5"/>
<rect x="128" y="32" width="32" height="32" fill="#7c3fd8" stroke="#33384a" stroke-width="1.5"/>
<rect x="160" y="32" width="32" height="32" fill="#2a5a3f" stroke="#33384a" stroke-width="1.5"/>
<text x="176.0" y="52.0" text-anchor="middle" font-size="11" fill="#1a1a1a">E</text>
<rect x="32" y="64" width="32" height="32" fill="#2a5a3f" stroke="#33384a" stroke-width="1.5"/>
<text x="48.0" y="84.0" text-anchor="middle" font-size="11" fill="#1a1a1a">E</text>
<rect x="64" y="64" width="32" height="32" fill="#7c3fd8" stroke="#33384a" stroke-width="1.5"/>
<rect x="96" y="64" width="32" height="32" fill="#7c3fd8" stroke="#33384a" stroke-width="1.5"/>
<rect x="128" y="64" width="32" height="32" fill="#7c3fd8" stroke="#33384a" stroke-width="1.5"/>
<rect x="160" y="64" width="32" height="32" fill="#2a5a3f" stroke="#33384a" stroke-width="1.5"/>
<text x="176.0" y="84.0" text-anchor="middle" font-size="11" fill="#1a1a1a">E</text>
<rect x="32" y="96" width="32" height="32" fill="#2a5a3f" stroke="#33384a" stroke-width="1.5"/>
<text x="48.0" y="116.0" text-anchor="middle" font-size="11" fill="#1a1a1a">E</text>
<rect x="64" y="96" width="32" height="32" fill="#7c3fd8" stroke="#33384a" stroke-width="1.5"/>
<rect x="96" y="96" width="32" height="32" fill="#7c3fd8" stroke="#33384a" stroke-width="1.5"/>
<rect x="128" y="96" width="32" height="32" fill="#7c3fd8" stroke="#33384a" stroke-width="1.5"/>
<rect x="160" y="96" width="32" height="32" fill="#2a5a3f" stroke="#33384a" stroke-width="1.5"/>
<text x="176.0" y="116.0" text-anchor="middle" font-size="11" fill="#1a1a1a">E</text>
<rect x="32" y="128" width="32" height="32" fill="#2a5a3f" stroke="#33384a" stroke-width="1.5"/>
<text x="48.0" y="148.0" text-anchor="middle" font-size="11" fill="#1a1a1a">E</text>
<rect x="64" y="128" width="32" height="32" fill="#2a5a3f" stroke="#33384a" stroke-width="1.5"/>
<text x="80.0" y="148.0" text-anchor="middle" font-size="11" fill="#1a1a1a">E</text>
<rect x="96" y="128" width="32" height="32" fill="#2a5a3f" stroke="#33384a" stroke-width="1.5"/>
<text x="112.0" y="148.0" text-anchor="middle" font-size="11" fill="#1a1a1a">E</text>
<rect x="128" y="128" width="32" height="32" fill="#2a5a3f" stroke="#33384a" stroke-width="1.5"/>
<text x="144.0" y="148.0" text-anchor="middle" font-size="11" fill="#1a1a1a">E</text>
<rect x="160" y="128" width="32" height="32" fill="#2a5a3f" stroke="#33384a" stroke-width="1.5"/>
<text x="176.0" y="148.0" text-anchor="middle" font-size="11" fill="#1a1a1a">E</text>
<text x="32" y="180" font-size="13" fill="#1a1a1a">12 End Portal Frame blocks in a ring, each needs an Eye of Ender (E). All 12 must face inward.</text>
<rect x="201.6" y="0" width="16" height="16" fill="#2a5a3f" stroke="#33384a"/>
<text x="223.6" y="13" font-size="13" fill="#1a1a1a">End Portal Frame + Eye</text>
<rect x="201.6" y="22" width="16" height="16" fill="#7c3fd8" stroke="#33384a"/>
<text x="223.6" y="35" font-size="13" fill="#1a1a1a">Portal (opens once all 12 are filled)</text>
</svg>
